<svg width="104" height="64" viewBox="0 0 104 64" fill="none" xmlns="http://www.w3.org/2000/svg">
<rect width="103.667" height="64" rx="8" fill="#F5D4C1"/>
<path d="M65.0616 35.6776C62.5511 27.5991 56.2311 21.2779 48.1518 18.7663C46.9136 18.3895 45.649 19.1205 45.2833 20.3122C44.8876 21.5228 45.5328 22.8095 46.7134 23.21C46.7423 23.2229 46.772 23.2336 46.8016 23.2435C53.3695 25.3072 58.5226 30.4612 60.586 37.0303C60.5951 37.0592 60.6065 37.0881 60.6187 37.1163C61.0281 38.3269 62.3413 38.9341 63.5001 38.5542C64.7801 38.1676 65.4375 36.792 65.0616 35.6776Z" fill="#393939"/>
<path d="M44.9776 28.2112C44.6924 28.0795 44.3939 28.017 44.0903 28L42.5 32.8417C42.9209 33.1481 43.4198 33.3333 43.9486 33.3333C45.3555 33.3333 46.5 32.1337 46.5 30.659C46.4999 29.5997 45.9028 28.6386 44.9776 28.2112Z" fill="#393939"/>
<path d="M50.2362 39.9328C49.7812 39.1521 48.8634 38.6667 47.8394 38.6667C46.3656 38.6667 45.1667 39.6864 45.1667 40.9398C45.1667 41.5658 45.4599 42.1488 45.9915 42.5816C46.0312 42.6139 46.0778 42.6367 46.1193 42.6667L50.4426 41.4008C50.559 40.8933 50.5028 40.3906 50.2362 39.9328Z" fill="#393939"/>
<path d="M53.8334 34.6667C53.4656 34.6667 53.1667 34.9656 53.1667 35.3334C53.1667 35.7012 53.4655 36.0001 53.8334 36.0001C54.2012 36.0001 54.5001 35.7012 54.5001 35.3334C54.5001 34.9656 54.2012 34.6667 53.8334 34.6667Z" fill="#393939"/>
<path d="M59.5322 37.5313C57.3508 30.6055 52.7353 26.733 46.1618 24.2426C45.982 24.1831 45.8054 24.0964 45.6318 24L44.9045 26.1136C45.2253 26.1673 45.5427 26.249 45.8491 26.3837C47.2923 27.0211 48.2251 28.4525 48.2251 30.0309C48.2251 32.228 46.4381 34.0158 44.2418 34.0158C43.5697 34.0158 42.933 33.8178 42.3602 33.507L38.5437 44.2772C38.4441 44.5651 38.518 44.8843 38.7335 45.0998C38.9524 45.3188 39.2746 45.3878 39.5558 45.2897L44.2496 43.5701C43.734 42.8858 43.4452 42.0646 43.4452 41.1885C43.4452 38.9914 45.2322 37.2036 47.4285 37.2036C48.9541 37.2036 50.3225 38.0535 50.9994 39.4218C51.2648 39.9579 51.3574 40.5354 51.3663 41.1191L59.8333 38.2029C59.7137 37.9905 59.6117 37.7665 59.5322 37.5313ZM49.5851 35.3762C49.2739 35.6874 48.7696 35.6874 48.4584 35.3762C48.1473 35.0649 48.1473 34.5603 48.4584 34.2491C48.7695 33.9379 49.2739 33.9379 49.5851 34.2491C49.8962 34.5603 49.8962 35.065 49.5851 35.3762ZM50.0518 29.0004C49.7406 28.689 49.7406 28.1847 50.0518 27.8734C50.3629 27.5621 50.8671 27.5621 51.1783 27.8734L52.7715 29.4673C53.0827 29.7786 53.0827 30.283 52.7715 30.5943C52.4603 30.9056 51.9563 30.9056 51.6451 30.5943L50.0518 29.0004ZM53.8016 37.2036C52.4838 37.2036 51.4117 36.1311 51.4117 34.8127C51.4117 33.4943 52.4838 32.4217 53.8016 32.4217C55.1195 32.4217 56.1916 33.4943 56.1916 34.8127C56.1916 36.1311 55.1195 37.2036 53.8016 37.2036Z" fill="#393939"/>
</svg>
