<svg width="105" height="64" viewBox="0 0 105 64" fill="none" xmlns="http://www.w3.org/2000/svg">
<rect x="0.666748" width="103.667" height="64" rx="8" fill="#FDEBC9"/>
<path d="M40.8889 29.1798C41.7467 30.6319 42.6924 32.0195 43.7196 33.3333H44.4879C44.3911 32.7262 44.2534 32.1277 44.076 31.5427C43.3977 29.3727 42.2151 27.4331 40.6445 25.9145L41.2408 25.194C42.925 26.8241 44.1924 28.9058 44.9184 31.2344C45.0357 31.6171 45.1321 32.0094 45.2179 32.4057C45.2579 32.3259 45.2992 32.2472 45.3343 32.1626C46.3345 29.7316 45.8484 25.8606 43.7228 24.5177C43.2124 24.2295 42.654 24.0575 42.0813 24.0121C41.5085 23.9668 40.9333 24.0489 40.3903 24.2537C40.1426 24.3224 39.9105 24.4461 39.7082 24.6171C39.506 24.788 39.338 25.0026 39.2146 25.2475C38.9787 25.8995 39.6265 27.044 40.8889 29.1798Z" fill="#393939"/>
<path d="M52.4992 28.7576C52.464 28.4736 52.394 28.1952 52.2907 27.9289C51.5668 26.0674 49.4541 25.0298 48.1883 25.4119C47.7727 25.5539 47.4141 25.8293 47.1667 26.1963C48.022 28.0843 48.1189 30.2354 47.437 32.1945C47.4635 32.1616 47.495 32.1324 47.521 32.1004C48.5075 30.8077 49.1171 29.261 49.2809 27.6353L50.204 27.7379C50.0239 29.5399 49.3464 31.2541 48.2491 32.6839C48.0722 32.9107 47.8776 33.1239 47.6789 33.3333H49.8204L49.859 33.3149C49.6154 32.3559 49.7566 31.3382 50.2515 30.4845C50.7465 29.6307 51.5549 29.0103 52.5001 28.759L52.4992 28.7576Z" fill="#393939"/>
<path d="M60.7744 33.3334H65.8333C65.5116 32.938 65.061 32.6306 64.5367 32.4489C64.1943 32.351 63.837 32.2961 63.4759 32.2861C63.0122 32.257 62.4863 32.2235 62.2429 31.8109C61.9903 31.3781 62.3353 31.0134 62.6121 30.7199C62.8935 30.4605 63.0992 30.1488 63.2127 29.8097C63.4622 28.8862 63.4653 27.3362 62.4469 26.8503C62.2103 26.7478 61.9517 26.6868 61.6867 26.6709C61.4216 26.655 61.1556 26.6846 60.9043 26.7577C60.1462 26.9509 59.5024 27.3803 59.1024 27.9597C58.7089 28.6051 58.9388 29.3207 59.161 30.0119C59.3833 30.7031 59.6157 31.4299 59.0034 31.9287C58.3816 32.4365 57.4734 32.2287 56.594 32.0251C56.6683 32.4621 56.6363 32.9073 56.5 33.3334H59.7475C59.8738 32.7266 60.0162 32.119 60.1814 31.5212C60.4643 30.4996 60.8088 29.4771 61.2053 28.4825L62.162 28.7568C61.7761 29.7257 61.4407 30.722 61.1654 31.7175C61.0179 32.2505 60.8901 32.7922 60.7744 33.3334Z" fill="#393939"/>
<path d="M55.0221 33.3333C55.1038 33.0716 55.1525 32.7982 55.1668 32.5211L54.4264 32.8013L54.145 31.8405L55.072 31.4895C54.9328 30.9397 54.6599 30.4457 54.2845 30.0642C53.9091 29.6828 53.4466 29.4294 52.9501 29.3333V30.2991H52.0596V29.3333C51.6337 29.4159 51.2317 29.6146 50.8881 29.9121C50.5444 30.2097 50.2694 30.5974 50.0864 31.042L50.8646 31.3368L50.5833 32.2976L49.8473 32.0185C49.8383 32.1193 49.8337 32.2205 49.8335 32.3219C49.8329 32.6666 49.885 33.0088 49.9875 33.3333H55.0221ZM52.0596 31.3105H52.9501V32.3219H52.0596V31.3105Z" fill="#393939"/>
<path d="M43.1667 33.3333C42.5822 32.9024 42.0195 32.4579 41.4785 32C41.0009 32.0962 40.5387 32.2184 40.0975 32.365C39.7392 32.4593 39.4476 32.6273 39.2746 32.8393C39.168 32.9956 39.1396 33.1674 39.193 33.3333H43.1667Z" fill="#393939"/>
<path d="M39.1667 34.6667C39.2938 37.8884 40.7035 40.9374 43.1004 43.1745C45.4972 45.4116 48.6951 46.6631 52.0236 46.6667H52.9766C56.3051 46.6631 59.503 45.4116 61.8998 43.1745C64.2966 40.9374 65.7063 37.8884 65.8334 34.6667H39.1667ZM47.0513 44.3129C44.7973 43.2592 42.9071 41.5949 41.6097 39.5217L42.4246 39.0426C43.6266 40.9634 45.3777 42.5054 47.4659 43.4821L47.0513 44.3129ZM49.1646 44.8206H48.2116V43.8975H49.1646V44.8206Z" fill="#393939"/>
<path d="M59.1668 22.3999V21.3333H57.3891C56.4461 21.3333 55.5417 21.7828 54.8749 22.5829C54.2081 23.3831 53.8335 24.4683 53.8335 25.5999V26.6666H55.6113C56.5543 26.6666 57.4586 26.2171 58.1254 25.4169C58.7922 24.6168 59.1668 23.5315 59.1668 22.3999Z" fill="#393939"/>
<path d="M50.5002 22.6666C50.8684 22.6666 51.1668 22.3681 51.1668 21.9999C51.1668 21.6317 50.8684 21.3333 50.5002 21.3333C50.132 21.3333 49.8335 21.6317 49.8335 21.9999C49.8335 22.3681 50.132 22.6666 50.5002 22.6666Z" fill="#393939"/>
<path d="M43.8334 21.3333C44.2016 21.3333 44.5001 21.0349 44.5001 20.6667C44.5001 20.2985 44.2016 20 43.8334 20C43.4652 20 43.1667 20.2985 43.1667 20.6667C43.1667 21.0349 43.4652 21.3333 43.8334 21.3333Z" fill="#393939"/>
</svg>
