<svg width="61" height="40" viewBox="0 0 61 40" fill="none" xmlns="http://www.w3.org/2000/svg">
<path d="M36.8623 9.56796C36.6538 9.21763 36.2657 9 35.8495 9H31.5V14H39.5L36.8623 9.56796Z" fill="white"/>
<path d="M29.5 9H25.127C24.7117 9 24.3251 9.21802 24.1174 9.56915L21.5 14H29.5V9H29.5Z" fill="white"/>
<path d="M21.5 16V29.5106C21.5 30.332 22.1748 31 23.0039 31H38.9961C39.8252 31 40.5 30.332 40.5 29.5106V16H21.5ZM33.9025 21.6817L30.5954 24.9577C30.4705 25.0814 30.3068 25.1435 30.1432 25.1435C29.9795 25.1435 29.8158 25.0814 29.6913 24.9577L28.141 23.4223C27.8916 23.1753 27.8916 22.7741 28.141 22.5266C28.3908 22.2792 28.7957 22.2792 29.0455 22.5266L30.1432 23.6144L32.9984 20.786C33.2482 20.5386 33.6532 20.5386 33.9025 20.786C34.1523 21.0335 34.1523 21.4342 33.9025 21.6817Z" fill="white"/>
</svg>
