<svg width="104" height="64" viewBox="0 0 104 64" fill="none" xmlns="http://www.w3.org/2000/svg">
<rect x="0.333252" width="103.667" height="64" rx="8" fill="#D0F1EB"/>
<path d="M63.8999 40H40.4333C39.5511 40 38.8333 40.673 38.8333 41.5C38.8333 42.878 40.029 44 41.4999 44H62.8333C64.3042 44 65.4999 42.878 65.4999 41.5C65.4999 40.673 64.782 40 63.8999 40Z" fill="#393939"/>
<path d="M39.3939 30.6666H64.9239C65.0572 30.6666 65.2023 30.6023 65.3015 30.5152C65.3986 30.4291 65.4594 30.3119 65.4711 30.1854C65.6439 28.5158 65.037 26.8825 63.7143 25.4596C61.3462 22.9147 56.9217 21.3333 52.1675 21.3333C47.4058 21.3333 42.9769 22.9178 40.6121 25.4689C39.2894 26.8949 38.6856 28.5303 38.8638 30.202C38.8915 30.4654 39.1209 30.6666 39.3939 30.6666ZM59.2566 25.6328C59.4646 25.4306 59.8027 25.4306 60.0108 25.6328L61.0774 26.6698C61.2854 26.8731 61.2854 27.2008 61.0774 27.403C60.9739 27.5047 60.8374 27.5555 60.7009 27.5555C60.5644 27.5555 60.4278 27.5047 60.3233 27.403L59.2566 26.366C59.0486 26.1638 59.0486 25.8361 59.2566 25.6328ZM54.9899 27.7069L56.0565 26.6699C56.2645 26.4677 56.6027 26.4677 56.8107 26.6699C57.0187 26.8732 57.0187 27.2008 56.8107 27.4031L55.744 28.4401C55.6405 28.5417 55.504 28.5925 55.3675 28.5925C55.231 28.5925 55.0944 28.5417 54.9899 28.4401C54.7819 28.2379 54.7819 27.9102 54.9899 27.7069ZM51.7898 23.5588C51.9978 23.3566 52.336 23.3566 52.544 23.5588L53.6107 24.5958C53.8187 24.7991 53.8187 25.1267 53.6107 25.329C53.5072 25.4306 53.3707 25.4814 53.2341 25.4814C53.0976 25.4814 52.9611 25.4306 52.8565 25.329L51.7898 24.292C51.5818 24.0897 51.5818 23.762 51.7898 23.5588ZM47.5231 25.6328L48.5898 24.5958C48.7978 24.3936 49.1359 24.3936 49.3439 24.5958C49.5519 24.7991 49.5519 25.1267 49.3439 25.329L48.2773 26.366C48.1738 26.4676 48.0372 26.5184 47.9007 26.5184C47.7642 26.5184 47.6276 26.4676 47.5231 26.366C47.3151 26.1638 47.3151 25.8361 47.5231 25.6328ZM43.2564 26.6699C43.4643 26.4677 43.8025 26.4677 44.0105 26.6699L45.0772 27.7069C45.2852 27.9102 45.2852 28.2379 45.0772 28.4401C44.9737 28.5417 44.8372 28.5925 44.7007 28.5925C44.5641 28.5925 44.4276 28.5417 44.323 28.4401L43.2564 27.4031C43.0484 27.2008 43.0484 26.8732 43.2564 26.6699Z" fill="#393939"/>
<path d="M40.6883 32C40.3992 32 40.1665 32.224 40.1665 32.5C40.1665 32.776 40.3992 33 40.6883 33H48.9119L55.0632 35.947C55.1373 35.983 55.2166 36 55.2969 36C55.4315 36 55.5651 35.95 55.6652 35.853L58.6433 33H63.6447C63.9327 33 64.1665 32.7761 64.1665 32.5C64.1665 32.224 63.9328 32 63.6447 32H40.6883Z" fill="#393939"/>
<path d="M40.9672 38.6665H63.367C64.6619 38.6665 65.6891 37.5805 65.4704 36.3285C65.2976 35.3455 64.3099 34.6665 63.2475 34.6665H59.9836L56.3313 38.0905C56.007 38.3946 55.511 38.4705 55.1004 38.2776L47.396 34.6666H41.0856C40.0233 34.6666 39.0355 35.3455 38.8627 36.3285C38.6441 37.5805 39.6723 38.6665 40.9672 38.6665Z" fill="#393939"/>
</svg>
